<svg width="38" height="48" xmlns="http://www.w3.org/2000/svg" version="1.1">
 <g id="Layer_1">
  <title>Layer 1</title>
  <g stroke="null" id="svg_1">
   <path stroke="null" d="m19.00662,0c-10.4952,0 -19.00662,7.64424 -19.00662,17.07017c0,9.42598 19.58278,30.92988 19.58278,30.92988c0,0 18.43053,-21.5039 18.43053,-30.92988c0,-9.42593 -8.51148,-17.07017 -19.0067,-17.07017l0.00001,0zm0,3.46342c8.36743,0 15.15034,6.09188 15.15034,13.60675c0,7.51493 -6.7829,13.60682 -15.15034,13.60682c-8.36735,0 -15.15028,-6.0919 -15.15028,-13.60682c0,-7.51487 6.78294,-13.60675 15.15028,-13.60675z" fill="#000000" fill-rule="nonzero" id="svg_1"/>
   <path stroke="null" d="m18.90185,14.01841c-0.15713,0 -0.28808,0.12348 -0.28808,0.26461l0,11.80156c0,0.3528 0.58926,0.3528 0.58926,0l0,-11.80156c0,-0.14701 -0.13095,-0.27049 -0.30118,-0.26461z" fill="#000000" fill-rule="evenodd" id="svg_2"/>
   <path stroke="null" d="m15.51044,19.39874c0.05893,0 0.11785,0.01168 0.16369,0.04117c0.04583,0.02939 0.49105,0.30578 1.03447,0.72326c0.54342,0.42337 1.15224,0.94085 1.40104,1.49358c0.19641,0.41162 0.17023,0.94674 0.13749,1.41127c-0.03928,0.45866 -0.11785,0.82912 -0.11785,0.82912c-0.03928,0.18816 -0.28154,0.27637 -0.45823,0.17051c0,0 -0.48449,-0.29989 -1.02792,-0.72325c-0.54344,-0.41749 -1.15232,-0.94085 -1.40768,-1.48771c-0.18987,-0.41749 -0.17023,-0.9526 -0.13094,-1.41126c0.03928,-0.45865 0.11785,-0.83501 0.11785,-0.83501c0.01964,-0.12348 0.14405,-0.21755 0.28808,-0.21168l0,0l-0.00001,0z" fill="#000000" fill-rule="evenodd" id="svg_3"/>
   <path stroke="null" d="m15.51044,15.20623c0.05893,0 0.11785,0.01776 0.16369,0.04704c0.04583,0.02939 0.49105,0.29989 1.03447,0.72319c0.54342,0.41752 1.15224,0.93496 1.40104,1.48771c0.19641,0.41749 0.17023,0.9526 0.13749,1.41126c-0.03928,0.45865 -0.11785,0.82912 -0.11785,0.82912c-0.03928,0.18816 -0.28154,0.28225 -0.45823,0.17052c0,0 -0.48449,-0.29989 -1.02792,-0.72326c-0.54344,-0.41749 -1.15232,-0.93496 -1.40768,-1.48769c-0.18987,-0.41752 -0.17023,-0.9526 -0.13094,-1.41126c0.03928,-0.4586 0.11785,-0.83492 0.11785,-0.83492c0.01964,-0.12348 0.14405,-0.21168 0.28808,-0.21168l0,-0.00001l-0.00001,-0.00001z" fill="#000000" fill-rule="evenodd" id="svg_4"/>
   <path stroke="null" d="m15.51044,11.0136c0.05893,0 0.11785,0.0175 0.16369,0.04704c0.04583,0.02939 0.49105,0.29989 1.03447,0.72326c0.54342,0.41748 1.15224,0.94081 1.40104,1.48768c0.19641,0.41752 0.17023,0.9526 0.13749,1.41126c-0.03928,0.45865 -0.11785,0.83501 -0.11785,0.83501c-0.03928,0.18816 -0.28154,0.27636 -0.45823,0.16465c0,0 -0.48449,-0.29989 -1.02792,-0.72326c-0.54344,-0.41752 -1.15232,-0.93496 -1.40768,-1.48771c-0.18987,-0.41162 -0.17023,-0.9526 -0.13094,-1.41126c0.03928,-0.45865 0.11785,-0.8291 0.11785,-0.8291c0.01964,-0.12937 0.14405,-0.21758 0.28808,-0.21758l0,0.00002l-0.00001,0z" fill="#000000" fill-rule="evenodd" id="svg_5"/>
   <path stroke="null" d="m19.1441,7.79125c-0.07856,0.00581 -0.15059,0.04117 -0.20297,0.09407c0,0 -0.27498,0.28812 -0.56306,0.67034c-0.29462,0.37632 -0.6089,0.83497 -0.67437,1.28189c-0.08502,0.58804 0.15059,1.31131 0.38629,1.91695c0.24226,0.61157 0.4976,1.09373 0.4976,1.09373c0.09166,0.17054 0.34701,0.19993 0.48449,0.05291c0,0 0.27498,-0.28812 0.56306,-0.67036c0.29464,-0.37632 0.6089,-0.83497 0.67437,-1.276c0.08511,-0.59393 -0.15059,-1.31719 -0.38629,-1.92284c-0.24225,-0.60568 -0.49759,-1.08787 -0.49759,-1.08787c-0.05238,-0.09995 -0.16369,-0.15874 -0.28154,-0.15284l0,0.00001l0,0.00001z" fill="#000000" fill-rule="evenodd" id="svg_6"/>
   <path stroke="null" d="m22.50286,11.0136c-0.05893,0 -0.11785,0.0175 -0.16369,0.04704c-0.04583,0.02939 -0.49105,0.29989 -1.03447,0.72326c-0.54342,0.41748 -1.15232,0.94081 -1.40112,1.48768c-0.18987,0.41752 -0.17023,0.9526 -0.13095,1.41126c0.03274,0.45865 0.11131,0.83501 0.11131,0.83501c0.03928,0.18816 0.28153,0.27636 0.45831,0.16465c0,0 0.48449,-0.29989 1.02792,-0.71741c0.54344,-0.42337 1.15232,-0.94082 1.40767,-1.49358c0.18987,-0.41162 0.17023,-0.9467 0.13095,-1.41126c-0.03928,-0.45865 -0.1113,-0.8291 -0.1113,-0.8291c-0.02618,-0.12937 -0.15059,-0.21758 -0.29462,-0.21758l0,0.00002l0,0.00001z" fill="#000000" fill-rule="evenodd" id="svg_7"/>
   <path stroke="null" d="m22.50286,19.39874c-0.05893,0 -0.11785,0.01168 -0.16369,0.04117c-0.04583,0.02939 -0.49105,0.30578 -1.03447,0.72326c-0.54342,0.42337 -1.15232,0.94085 -1.40112,1.49358c-0.18987,0.41162 -0.17023,0.94674 -0.13095,1.41127c0.03274,0.45866 0.11131,0.82912 0.11131,0.82912c0.03928,0.18816 0.28153,0.27637 0.45831,0.17051c0,0 0.48449,-0.29989 1.02792,-0.72325c0.54344,-0.41749 1.15232,-0.94085 1.40767,-1.48771c0.18987,-0.41749 0.17023,-0.9526 0.13095,-1.41126c-0.03928,-0.45865 -0.1113,-0.83501 -0.1113,-0.83501c-0.02618,-0.12348 -0.15059,-0.21755 -0.29462,-0.21168l0,0z" fill="#000000" fill-rule="evenodd" id="svg_8"/>
   <path stroke="null" d="m22.50286,15.20623c-0.05893,0 -0.11785,0.01776 -0.16369,0.04704c-0.04583,0.02939 -0.49105,0.29989 -1.03447,0.72319c-0.54342,0.41752 -1.15232,0.93496 -1.40112,1.48771c-0.18987,0.41749 -0.17023,0.9526 -0.13095,1.41126c0.03274,0.45865 0.11131,0.82912 0.11131,0.82912c0.03928,0.18816 0.28153,0.28225 0.45831,0.17052c0,0 0.48449,-0.29989 1.02792,-0.72326c0.54344,-0.41749 1.15232,-0.93496 1.40767,-1.48769c0.18987,-0.41752 0.17023,-0.9526 0.13095,-1.41126c-0.03928,-0.4586 -0.1113,-0.83492 -0.1113,-0.83492c-0.02618,-0.12348 -0.15059,-0.21168 -0.29462,-0.21168l0,-0.00001l0,-0.00001z" fill="#000000" fill-rule="evenodd" id="svg_9"/>
  </g>
 </g>

</svg>