<svg width="26" height="26" xmlns="http://www.w3.org/2000/svg">

 <g>
  <title>Layer 1</title>
  <path id="svg_1" font-family="Bitstream Vera Sans" overflow="visible" color="#000" d="m10,0c-3.85415,0 -7,3.14585 -7,7c0,2.40884 1.23116,4.55212 3.09375,5.8125c-3.56714,1.52983 -6.09375,5.06876 -6.09375,9.1875l2,0c0,-4.43067 3.56933,-8 8,-8c2.14605,0 4.06295,0.87853 5.5,2.25l-4.5,4.5l-0.21875,0.21875l-0.0625,0.3125l-0.6875,3.53125l-0.3125,1.46875l1.46875,-0.3125l3.53125,-0.6875l0.3125,-0.0625l0.21875,-0.21875l9.875,-9.875c1.16196,-1.16196 1.16196,-3.08804 0,-4.25c-0.58098,-0.58098 -1.35594,-0.875 -2.125,-0.875c-0.76906,0 -1.54402,0.29402 -2.125,0.875l-3.9375,3.9375c-0.86981,-0.83788 -1.9041,-1.51773 -3.03125,-2c1.86259,-1.26038 3.09375,-3.40366 3.09375,-5.8125c0,-3.85415 -3.14585,-7 -7,-7zm0,2c2.77327,0 5,2.22673 5,5c0,2.77327 -2.22673,5 -5,5c-2.77327,0 -5,-2.22673 -5,-5c0,-2.77327 2.22673,-5 5,-5zm13,10c0.25294,0 0.51973,0.08223 0.71875,0.28125c0.38712,0.38712 0.39713,0.97669 0.03125,1.375l-0.03125,0.03125l-9.6875,9.6875l-1.78125,0.375l0.375,-1.78125l9.6875,-9.6875c0.19902,-0.19902 0.43456,-0.28125 0.6875,-0.28125z"/>
 </g>
</svg>