<svg width="90" height="102" xmlns="http://www.w3.org/2000/svg" version="1.1" enable-background="new 0 0 100 100" xml:space="preserve">
 <g id="Layer_1">
  <title>Layer 1</title>
  <path stroke="null" fill="#56baed" d="m45.26685,1c-18.95404,0 -34.36183,13.54231 -34.36183,30.2015l0,10.5329l-0.85599,0c-5.01365,0 -9.04902,3.54679 -9.04902,7.95342l0,43.95876c0,4.40663 4.03538,7.95342 9.04902,7.95342l69.70195,0c5.01365,0 9.04902,-3.54679 9.04902,-7.95342l0,-43.95876c0,-4.40663 -4.03538,-7.95342 -9.04902,-7.95342l-0.24457,0l0,-10.5329c0.12228,-16.65919 -15.28551,-30.2015 -34.23955,-30.2015zm-19.32089,30.2015c0,-9.35064 8.68217,-16.98163 19.32089,-16.98163c10.63872,0 19.32089,7.63098 19.32089,16.98163l0,10.5329l-38.64179,0l0,-10.5329zm39.74234,46.10834l-15.28551,0l0,3.86923l0,9.45812l-10.761,0l0,-9.45812l0,-3.86923l-4.40223,0l-10.761,0l0,-9.45812l10.761,0l4.40223,0l0,-13.43482l10.761,0l0,13.43482l15.28551,0l0,9.45812z" id="svg_1"/>
 </g>

</svg>